<svg aria-hidden="true" style="position: absolute; width: 0; height: 0; overflow: hidden;" version="1.1" xmlns="http://www.w3.org/2000/svg" xmlns:xlink="http://www.w3.org/1999/xlink">
<defs>
<symbol id="icon-social-twitter-circular" viewBox="0 0 24 24">
<title>social-twitter-circular</title>
<path d="M15.279 10.283c0.358-0.221 0.597-0.521 0.713-0.904-0.349 0.186-0.697 0.312-1.045 0.383-0.312-0.336-0.708-0.507-1.182-0.507-0.464 0-0.855 0.163-1.175 0.479-0.317 0.318-0.478 0.706-0.478 1.158 0 0.137 0.017 0.26 0.052 0.364-1.368-0.048-2.499-0.614-3.391-1.706-0.151 0.267-0.227 0.539-0.227 0.82 0 0.578 0.244 1.036 0.73 1.373-0.277-0.023-0.521-0.094-0.73-0.209 0 0.413 0.121 0.758 0.365 1.062 0.243 0.3 0.557 0.492 0.939 0.573-0.139 0.036-0.285 0.053-0.435 0.053-0.14 0-0.237-0.012-0.296-0.037 0.104 0.337 0.296 0.609 0.574 0.818 0.277 0.21 0.597 0.32 0.957 0.33-0.591 0.465-1.269 0.694-2.035 0.694-0.188 0-0.32-0.002-0.4-0.017 0.754 0.489 1.594 0.733 2.521 0.733 0.951 0 1.792-0.241 2.522-0.723 0.73-0.479 1.271-1.070 1.617-1.767 0.348-0.695 0.521-1.419 0.521-2.174v-0.209c0.336-0.253 0.609-0.538 0.818-0.854-0.298 0.133-0.611 0.222-0.935 0.267z"></path>
<path d="M12 21c-2.49 0-4.635-0.89-6.376-2.646-1.741-1.751-2.624-3.889-2.624-6.354 0-2.488 0.884-4.634 2.627-6.375 1.74-1.741 3.884-2.625 6.373-2.625 2.466 0 4.604 0.883 6.354 2.624 1.756 1.742 2.646 3.888 2.646 6.376 0 2.465-0.889 4.604-2.644 6.357-1.751 1.753-3.889 2.643-6.356 2.643zM12 5c-1.966 0-3.588 0.667-4.958 2.040-1.375 1.372-2.042 2.994-2.042 4.96 0 1.944 0.668 3.562 2.043 4.945 1.372 1.383 2.993 2.055 4.957 2.055 1.943 0 3.56-0.673 4.942-2.057 1.385-1.384 2.058-3.002 2.058-4.943 0-1.963-0.672-3.585-2.055-4.957-1.383-1.375-3-2.043-4.945-2.043z"></path>
</symbol>
<symbol id="icon-social-linkedin-circular" viewBox="0 0 24 24">
<title>social-linkedin-circular</title>
<path d="M10.033 15.3h-1.6v-5.199h1.6v5.199zM9.233 9.434c-0.577 0-0.866-0.267-0.866-0.8 0-0.223 0.082-0.412 0.25-0.567 0.166-0.155 0.371-0.233 0.616-0.233 0.577 0 0.866 0.268 0.866 0.801s-0.288 0.799-0.866 0.799zM15.967 15.3h-1.633v-2.9c0-0.755-0.268-1.133-0.801-1.133-0.422 0-0.699 0.211-0.834 0.633-0.043 0.067-0.066 0.201-0.066 0.4v3h-1.633v-3.533c0-0.8-0.012-1.355-0.033-1.666h1.4l0.1 0.699c0.367-0.556 0.9-0.833 1.633-0.833 0.557 0 1.006 0.194 1.35 0.583 0.346 0.389 0.518 0.95 0.518 1.684v3.066z"></path>
<path d="M12 21c-4.963 0-9-4.037-9-9s4.037-9 9-9 9 4.037 9 9-4.037 9-9 9zM12 5c-3.859 0-7 3.141-7 7s3.141 7 7 7 7-3.141 7-7-3.141-7-7-7z"></path>
</symbol>
<symbol id="icon-envelop" viewBox="0 0 32 32">
<title>envelop</title>
<path d="M29 4h-26c-1.65 0-3 1.35-3 3v20c0 1.65 1.35 3 3 3h26c1.65 0 3-1.35 3-3v-20c0-1.65-1.35-3-3-3zM12.461 17.199l-8.461 6.59v-15.676l8.461 9.086zM5.512 8h20.976l-10.488 7.875-10.488-7.875zM12.79 17.553l3.21 3.447 3.21-3.447 6.58 8.447h-19.579l6.58-8.447zM19.539 17.199l8.461-9.086v15.676l-8.461-6.59z"></path>
</symbol>
</defs>
</svg>
